<svg version="1.1" id="Layer_1" xmlns="http://www.w3.org/2000/svg" xmlns:xlink="http://www.w3.org/1999/xlink" x="0px" y="0px"
	 width="100%" viewBox="0 0 1024 1024" enable-background="new 0 0 1024 1024" xml:space="preserve">
<path fill="#000000" opacity="1.000000" stroke="none"
	d="
M93.800537,571.074097
	C87.209152,535.941406 85.493057,500.973846 87.492973,465.721100
	C89.869034,423.837860 98.568405,383.319183 112.921371,344.001404
	C131.951447,291.871399 160.524017,245.468613 197.779556,204.390106
	C237.504730,160.588531 284.417023,126.649132 338.254791,102.248253
	C372.284210,86.825127 407.882263,76.676552 444.723297,70.792198
	C481.727875,64.881737 518.845459,63.690716 556.184387,67.517723
	C640.724670,76.182541 716.105469,107.087029 781.938599,160.694382
	C839.053650,207.202637 880.825806,265.194366 908.207703,333.534729
	C920.456116,364.104645 928.882507,395.780609 933.736572,428.310791
	C939.789612,468.875519 940.141418,509.537292 934.631653,550.266724
	C924.120361,627.968262 893.751221,697.141174 845.072876,758.267273
	C810.734070,801.387146 768.955811,835.940125 720.838562,862.877319
	C682.779114,884.183777 642.581787,899.722351 599.870239,908.716309
	C572.743652,914.428589 545.301453,917.706665 517.621887,917.912781
	C488.784332,918.127563 460.188690,915.253540 431.791687,909.719238
	C374.545044,898.562317 322.067780,876.203369 273.902771,843.631287
	C207.100418,798.455566 157.415924,738.673401 123.787727,665.525024
	C109.961388,635.449829 100.102440,604.026489 93.800537,571.074097
M158.815094,634.749146
	C174.931580,674.322205 197.273666,710.080444 225.558380,742.024231
	C276.209076,799.227478 338.171417,838.725830 411.738647,859.797302
	C433.895020,866.143311 456.536987,869.738098 479.402283,872.327148
	C489.987427,873.525757 490.636902,873.379944 490.636414,862.824158
	C490.624878,617.195312 490.615479,371.566437 490.605865,125.937561
	C490.605743,122.771584 490.612457,119.605598 490.608093,116.439629
	C490.603790,113.304573 489.054718,111.869415 485.907104,112.115524
	C480.101868,112.569420 474.257416,112.711334 468.493225,113.469200
	C439.551086,117.274506 411.120667,123.276810 383.540710,133.092468
	C320.101715,155.670273 266.500702,192.664917 222.782852,243.687347
	C178.760086,295.065643 150.227112,354.141418 137.028000,420.616455
	C129.472198,458.670013 128.231216,496.930237 132.565567,535.370911
	C136.411942,569.483948 145.387924,602.330627 158.815094,634.749146
M687.841003,340.411926
	C685.561340,330.531616 683.149963,320.678925 681.065857,310.757538
	C680.217590,306.719177 677.995056,304.952179 674.113770,304.175873
	C664.172668,302.187439 654.301636,299.851685 644.375366,297.785675
	C610.899597,290.818146 576.978821,287.715515 542.873596,286.336151
	C536.316833,286.070984 536.073181,286.482086 536.071167,292.938110
	C536.062744,319.418182 536.073242,345.898224 536.071472,372.378296
	C536.069458,403.521484 536.060425,434.664673 536.058044,465.807861
	C536.057556,472.435974 536.330566,472.773834 542.616272,472.775208
	C593.577942,472.786407 644.539673,472.785797 695.501343,472.758789
	C702.443176,472.755127 703.142944,471.902924 702.987427,464.848785
	C702.734253,453.366913 701.799194,441.933502 700.921570,430.485748
	C698.617981,400.439178 694.128174,370.726532 687.841003,340.411926
M644.718140,686.094299
	C655.292358,683.839233 665.855835,681.532104 676.446960,679.359558
	C679.807617,678.670227 681.640381,676.887268 682.272888,673.486450
	C683.032776,669.400269 684.091736,665.368774 685.052551,661.320984
	C691.860168,632.641602 696.452026,603.582825 699.661255,574.307068
	C701.565491,556.935364 702.706848,539.497986 703.079712,522.013184
	C703.196533,516.535034 702.558472,515.424805 697.085938,515.418945
	C645.255432,515.363220 593.424805,515.391968 541.594421,515.310669
	C537.495056,515.304260 536.008911,516.942749 536.013977,520.970398
	C536.085693,577.800537 536.088684,634.630798 536.041199,691.460938
	C536.038086,695.173218 537.210205,697.071594 541.221008,696.877869
	C552.200317,696.347595 563.232300,696.453125 574.161133,695.428894
	C597.504272,693.241211 620.803040,690.557129 644.718140,686.094299
M734.337646,661.608948
	C749.205994,656.187988 763.721069,649.949951 777.882568,642.881287
	C810.431519,626.634277 839.562988,605.974915 862.320007,577.179199
	C875.122009,560.980164 885.327576,543.333801 891.159851,523.375122
	C893.189575,516.429199 892.529602,515.376831 885.914001,515.373169
	C841.286133,515.348877 796.658203,515.400269 752.030579,515.294861
	C747.375183,515.283813 745.279297,516.964172 745.290527,521.658386
	C745.308472,529.146729 744.766113,536.618225 744.384216,544.097595
	C743.229736,566.710022 740.730652,589.176331 737.708252,611.593201
	C735.640442,626.929932 732.948242,642.165894 729.803833,657.320618
	C729.161621,660.415771 728.650330,663.475037 734.337646,661.608948
M737.133362,373.605530
	C741.617676,404.754761 744.730042,436.026459 745.383667,467.510040
	C745.478882,472.097412 748.111145,472.826111 751.971375,472.820251
	C796.773560,472.752319 841.575989,472.785553 886.378296,472.759613
	C891.662781,472.756561 892.553162,471.569672 891.369324,466.465729
	C891.069641,465.173523 890.553528,463.932281 890.154480,462.662140
	C882.492615,438.274597 868.265930,417.935150 850.894470,399.635925
	C818.621277,365.639038 779.024353,342.817932 736.169495,325.063995
	C734.427185,324.342194 732.593506,322.591034 730.608337,324.039886
	C728.334167,325.699738 729.042358,328.305023 729.433472,330.535828
	C731.901672,344.616302 734.479004,358.677704 737.133362,373.605530
M701.279724,233.360947
	C705.243774,244.845795 709.316956,256.294952 713.093994,267.840973
	C714.019287,270.669678 715.346985,272.263672 718.207947,273.249298
	C727.021057,276.285492 735.794739,279.463470 744.458252,282.902435
	C788.897827,300.542694 830.338989,323.233002 866.079895,355.473877
	C867.067322,356.364563 867.987366,357.908875 870.700745,356.737183
	C841.479248,284.256256 796.007019,224.698303 732.173950,179.488998
	C706.749451,161.482300 679.749634,146.319077 649.480713,135.724899
	C649.754639,139.774673 651.762878,141.255478 653.031860,143.109985
	C656.416870,148.057236 660.070862,152.823380 663.380188,157.819031
	C678.904236,181.253708 690.940735,206.453979 701.279724,233.360947
M843.178772,649.715759
	C807.168823,676.067139 767.125854,694.281128 724.793030,707.604004
	C717.487976,709.903015 714.265320,713.637878 712.083496,720.707581
	C698.549194,764.562134 680.381897,806.225403 652.137756,842.903931
	C651.380249,843.887695 650.211365,844.896484 651.873596,847.396912
	C692.837158,831.448120 729.929565,808.811035 763.109619,779.848328
	C810.140442,738.795349 845.288086,689.206726 868.876953,631.534851
	C868.475159,631.151306 868.073303,630.767822 867.671509,630.384338
	C859.700439,636.685852 851.729370,642.987305 843.178772,649.715759
M651.587585,761.140259
	C655.647156,751.289001 659.825500,741.484375 663.719116,731.567932
	C665.847717,726.146790 664.278442,724.379089 658.531555,725.571106
	C620.945312,733.366760 582.904724,737.220703 544.606934,738.950439
	C536.275391,739.326660 536.074585,739.677307 536.076050,748.075989
	C536.082031,782.897339 536.082581,817.718750 536.085327,852.540100
	C536.085754,857.871399 536.156799,863.203857 536.061768,868.533447
	C536.003845,871.782532 537.419739,873.159607 540.618774,872.705505
	C542.095398,872.495789 543.596313,872.365356 545.036072,872.000916
	C563.580994,867.306641 579.258911,857.404785 593.328430,844.836182
	C619.167236,821.753906 636.749573,792.840515 651.587585,761.140259
M536.106812,213.500000
	C536.091736,221.332489 536.058899,229.165009 536.067200,236.997482
	C536.073975,243.365967 536.391907,243.597153 542.844849,243.843628
	C565.478455,244.708160 588.023621,246.567474 610.502991,249.417389
	C626.701233,251.470978 642.748718,254.353394 658.817444,257.162750
	C663.652100,258.008026 664.629028,256.809265 663.007141,252.126450
	C661.700378,248.353622 660.148987,244.662170 658.620911,240.969864
	C646.393188,211.423965 631.789368,183.231247 610.660645,158.922195
	C592.419495,137.935379 571.131531,121.261986 543.836182,113.526192
	C536.862610,111.549820 536.062683,112.157120 536.063293,119.508064
	C536.065857,150.505371 536.090027,181.502686 536.106812,213.500000
z"/>
<path fill="#000000" opacity="1.000000" stroke="none"
	d="
M282.841248,384.164673
	C290.965332,358.558044 308.548615,346.030701 335.114288,345.626770
	C351.143890,345.383087 365.544403,348.877991 377.173920,360.435211
	C387.071014,370.270721 392.234192,382.281372 392.247986,396.285400
	C392.300415,449.600037 392.288300,502.914734 392.261536,556.229431
	C392.246735,585.654968 370.817261,607.679382 341.357910,608.912781
	C322.625000,609.697021 305.974274,605.423157 293.418854,590.407410
	C285.061737,580.412720 281.075378,568.762878 281.049469,555.845215
	C280.943939,503.197205 280.917297,450.548889 281.011597,397.900970
	C281.019562,393.455261 282.140106,389.011505 282.841248,384.164673
z"/>
</svg>